
<svg xmlns="http://www.w3.org/2000/svg" xml:space="preserve" width="50mm" height="50mm" version="1.1" style="shape-rendering:geometricPrecision; text-rendering:geometricPrecision; image-rendering:optimizeQuality; fill-rule:evenodd; clip-rule:evenodd"
     viewBox="0 0 5000 5000"
     xmlns:xlink="http://www.w3.org/1999/xlink"
     xmlns:xodm="http://www.corel.com/coreldraw/odm/2003">
 <defs>
  <style type="text/css">
   <![CDATA[
    .fil3 {fill:#FEFEFE}
    .fil0 {fill:#C5C6C6}
    .fil2 {fill:#9D9E9E}
    .fil1 {fill:#00A0E3}
   ]]>
  </style>
 </defs>
    <g id="Ebene_x0020_1">
  <metadata id="CorelCorpID_0Corel-Layer"/>
        <g id="_1428491056688">
   <path class="fil0" d="M2500 250c1239.26,0 2250,1010.73 2250,2249.99 0,1239.27 -1010.74,2250.01 -2250,2250.01 -1239.27,0 -2250,-1010.74 -2250,-2250.01 0,-1239.26 1010.73,-2249.99 2250,-2249.99z"/>
            <path class="fil1" d="M2500 344.31c1187.32,0 2155.69,968.38 2155.69,2155.68 0,1187.33 -968.37,2155.7 -2155.69,2155.7 -1187.31,0 -2155.69,-968.37 -2155.69,-2155.7 0,-1187.3 968.38,-2155.68 2155.69,-2155.68z"/>
            <path class="fil2" d="M2500 872.06c896.64,0 1627.94,731.3 1627.94,1627.93 0,896.66 -731.3,1627.96 -1627.94,1627.96 -896.64,0 -1627.94,-731.3 -1627.94,-1627.96 0,-896.63 731.3,-1627.93 1627.94,-1627.93z"/>
            <polygon class="fil3" points="2500,965.29 2578.82,967.3 2656.58,973.23 2733.2,983.03 2808.62,996.57 2882.72,1013.73 2955.42,1034.46 3026.62,1058.63 3096.24,1086.17 3164.17,1116.96 3230.32,1150.93 3294.58,1187.96 3356.88,1227.96 3417.09,1270.82 3475.14,1316.48 3530.9,1364.81 3584.28,1415.71 3635.18,1469.11 3683.52,1524.87 3695.84,1540.53 3687.9,1544.07 3611.52,1575.9 3535.16,1605.41 3458.83,1632.66 3382.49,1657.61 3306.13,1680.31 3229.71,1700.75 3153.23,1718.95 3076.67,1734.93 3000,1748.69 2923.19,1760.24 2846.25,1769.6 2769.15,1776.77 2691.87,1781.76 2614.37,1784.59 2536.66,1785.26 2458.69,1783.78 2380.46,1780.16 2301.92,1774.41 2223.11,1766.53 2143.95,1756.52 2064.46,1744.42 1984.6,1730.21 1904.37,1713.92 1823.74,1695.53 1742.69,1675.06 1661.22,1652.53 1579.29,1627.91 1496.9,1601.26 1414.02,1572.55 1330.66,1541.8 1312.98,1529.31 1316.48,1524.87 1364.81,1469.11 1415.71,1415.71 1469.09,1364.81 1524.86,1316.48 1582.9,1270.82 1643.11,1227.96 1705.42,1187.96 1769.68,1150.93 1835.83,1116.96 1903.77,1086.17 1973.38,1058.63 2044.59,1034.46 2117.28,1013.73 2191.39,996.57 2266.79,983.03 2343.42,973.23 2421.2,967.3 "/>
            <polygon class="fil3" points="3753.38,1616.91 3772.05,1643.13 3812.04,1705.41 3849.08,1769.68 3883.04,1835.84 3913.83,1903.76 3941.35,1973.38 3965.54,2044.59 3986.26,2117.29 4003.44,2191.39 4016.95,2266.79 4026.75,2343.42 4032.71,2421.19 4034.71,2499.99 4032.71,2578.83 4026.75,2656.57 4016.95,2733.22 4003.44,2808.62 3986.26,2882.72 3965.54,2955.41 3941.35,3026.63 3913.83,3096.23 3883.04,3164.17 3849.08,3230.32 3812.04,3294.59 3772.05,3356.88 3753.38,3383.1 3724.82,3370.34 3646.27,3337.61 3567.65,3307.21 3488.99,3279.14 3410.26,3253.41 3331.46,3229.98 3252.55,3208.88 3173.55,3190.08 3094.41,3173.57 3015.16,3159.35 2935.76,3147.39 2856.22,3137.72 2776.48,3130.31 2696.57,3125.14 2616.48,3122.23 2536.17,3121.53 2455.66,3123.07 2374.89,3126.8 2293.89,3132.73 2212.63,3140.85 2131.1,3151.16 2049.28,3163.6 1967.16,3178.21 1884.73,3194.97 1801.97,3213.83 1718.85,3234.83 1635.38,3257.92 1551.54,3283.09 1467.28,3310.36 1382.63,3339.69 1297.56,3371.06 1251,3389.26 1227.95,3356.88 1187.96,3294.59 1150.92,3230.32 1116.97,3164.17 1086.15,3096.23 1058.63,3026.63 1034.46,2955.41 1013.73,2882.72 996.56,2808.62 983.03,2733.22 973.24,2656.57 967.3,2578.83 965.29,2499.99 967.3,2421.19 973.24,2343.42 983.03,2266.79 996.56,2191.39 1013.73,2117.29 1034.46,2044.59 1058.63,1973.38 1086.15,1903.76 1116.97,1835.84 1150.92,1769.68 1187.96,1705.41 1227.95,1643.13 1251,1610.74 1297.56,1628.95 1382.63,1660.32 1467.28,1689.65 1551.54,1716.9 1635.38,1742.08 1718.85,1765.17 1801.97,1786.17 1884.73,1805.04 1967.16,1821.79 2049.28,1836.39 2131.1,1848.85 2212.63,1859.14 2293.89,1867.26 2374.89,1873.21 2455.66,1876.94 2536.17,1878.47 2616.48,1877.77 2696.57,1874.85 2776.48,1869.7 2856.22,1862.28 2935.76,1852.61 3015.16,1840.65 3094.41,1826.44 3173.55,1809.92 3252.55,1791.12 3331.46,1770.02 3410.26,1746.6 3488.99,1720.86 3567.65,1692.79 3646.27,1662.39 3724.82,1629.66 "/>
            <polygon class="fil3" points="3695.84,3459.47 3683.52,3475.14 3635.18,3530.9 3584.28,3584.3 3530.9,3635.19 3475.14,3683.53 3417.09,3729.18 3356.88,3772.04 3294.58,3812.04 3230.32,3849.08 3164.17,3883.03 3096.24,3913.83 3026.62,3941.38 2955.42,3965.54 2882.72,3986.28 2808.62,4003.44 2733.2,4016.98 2656.58,4026.76 2578.82,4032.71 2500,4034.71 2421.2,4032.71 2343.42,4026.76 2266.79,4016.98 2191.39,4003.44 2117.28,3986.28 2044.59,3965.54 1973.38,3941.38 1903.77,3913.83 1835.83,3883.03 1769.68,3849.08 1705.42,3812.04 1643.11,3772.04 1582.9,3729.18 1524.86,3683.53 1469.09,3635.19 1415.71,3584.3 1364.81,3530.9 1316.48,3475.14 1312.98,3470.7 1330.66,3458.21 1414.02,3427.46 1496.9,3398.74 1579.29,3372.08 1661.22,3347.48 1742.69,3324.93 1823.74,3304.47 1904.37,3286.09 1984.6,3269.79 2064.46,3255.57 2143.95,3243.48 2223.11,3233.48 2301.92,3225.6 2380.46,3219.85 2458.69,3216.23 2536.66,3214.75 2614.37,3215.41 2691.87,3218.24 2769.15,3223.24 2846.25,3230.41 2923.19,3239.77 3000,3251.31 3076.67,3265.08 3153.23,3281.06 3229.71,3299.25 3306.13,3319.7 3382.49,3342.4 3458.83,3367.35 3535.16,3394.57 3611.52,3424.1 3687.9,3455.93 "/>
            <polygon class="fil3" points="3376.24,1325.41 3431.72,1369.04 3485.03,1415.25 3536.09,1463.92 3583.51,1513.66 3511.43,1541.53 3436.79,1568.15 3362.21,1592.55 3287.61,1614.71 3213.01,1634.67 3138.38,1652.44 3063.69,1668 2988.9,1681.44 2914.02,1692.7 2838.99,1701.82 2763.79,1708.81 2688.42,1713.69 2612.84,1716.44 2537.01,1717.1 2460.92,1715.66 2384.52,1712.12 2307.81,1706.5 2230.76,1698.8 2153.35,1689.03 2075.56,1677.16 1997.36,1663.27 1918.74,1647.29 1839.66,1629.25 1760.13,1609.17 1680.1,1587.03 1599.58,1562.84 1518.55,1536.63 1436.98,1508.38 1425.55,1504.16 1463.92,1463.92 1514.95,1415.25 1568.26,1369.04 1623.75,1325.41 1681.32,1284.42 1740.85,1246.19 1802.28,1210.8 1865.49,1178.35 1930.38,1148.93 1996.87,1122.64 2064.9,1099.54 2134.33,1079.75 2205.1,1063.35 2277.14,1050.42 2350.34,1041.06 2424.65,1035.4 2500,1033.47 2575.35,1035.4 2649.66,1041.06 2722.86,1050.42 2794.89,1063.35 2865.68,1079.75 2935.1,1099.54 3003.11,1122.64 3069.61,1148.93 3134.5,1178.35 3197.73,1210.8 3259.14,1246.19 3318.67,1284.42 "/>
            <polygon class="fil3" points="3949.57,2722.86 3936.66,2794.9 3920.25,2865.68 3900.46,2935.11 3877.37,3003.11 3851.06,3069.61 3821.64,3134.51 3789.2,3197.73 3753.8,3259.13 3728.78,3298.14 3671.66,3274.34 3591.4,3243.31 3511.03,3214.64 3430.57,3188.34 3349.96,3164.39 3269.25,3142.8 3188.42,3123.55 3107.4,3106.64 3026.26,3092.1 2944.95,3079.86 2863.48,3069.96 2781.83,3062.36 2700.02,3057.09 2618.01,3054.09 2535.82,3053.38 2453.43,3054.94 2370.83,3058.76 2288.01,3064.83 2204.96,3073.14 2121.69,3083.65 2038.18,3096.35 1954.4,3111.27 1870.36,3128.33 1786.04,3147.58 1701.43,3168.93 1616.49,3192.43 1531.25,3218.03 1445.64,3245.72 1359.69,3275.52 1276.42,3306.22 1246.19,3259.13 1210.79,3197.73 1178.35,3134.5 1148.93,3069.61 1122.62,3003.13 1099.53,2935.11 1079.75,2865.68 1063.34,2794.9 1050.42,2722.86 1041.06,2649.67 1035.37,2575.36 1033.47,2499.99 1035.37,2424.65 1041.06,2350.34 1050.42,2277.14 1063.34,2205.1 1079.75,2134.33 1099.53,2064.9 1122.64,1996.89 1148.93,1930.37 1178.35,1865.5 1210.79,1802.28 1246.19,1740.86 1276.42,1693.79 1359.69,1724.49 1445.64,1754.27 1531.23,1781.97 1616.49,1807.58 1701.43,1831.07 1786.04,1852.43 1870.36,1871.66 1954.4,1888.74 2038.18,1903.65 2121.69,1916.36 2204.96,1926.87 2288.01,1935.18 2370.83,1941.23 2453.43,1945.05 2535.82,1946.62 2618.01,1945.92 2700.02,1942.92 2781.83,1937.64 2863.48,1930.05 2944.95,1920.15 3026.26,1907.9 3107.4,1893.36 3188.42,1876.45 3269.25,1857.2 3349.96,1835.62 3430.57,1811.67 3511.03,1785.37 3591.4,1756.69 3671.66,1725.66 3728.76,1701.87 3753.8,1740.86 3789.2,1802.28 3821.64,1865.48 3851.06,1930.37 3877.37,1996.89 3900.46,2064.9 3920.25,2134.33 3936.66,2205.1 3949.57,2277.14 3958.93,2350.34 3964.62,2424.65 3966.53,2499.99 3964.62,2575.36 3958.93,2649.67 "/>
            <polygon class="fil3" points="2794.89,3936.66 2722.86,3949.58 2649.66,3958.94 2575.35,3964.61 2500,3966.54 2424.65,3964.61 2350.34,3958.94 2277.14,3949.58 2205.1,3936.66 2134.33,3920.25 2064.9,3900.46 1996.89,3877.37 1930.38,3851.08 1865.49,3821.66 1802.28,3789.21 1740.85,3753.82 1681.32,3715.58 1623.75,3674.59 1568.26,3630.95 1514.95,3584.74 1463.92,3536.09 1425.55,3495.83 1436.98,3491.62 1518.55,3463.38 1599.58,3437.14 1680.1,3412.98 1760.13,3390.83 1839.66,3370.74 1918.74,3352.71 1997.36,3336.74 2075.56,3322.82 2153.35,3310.97 2230.76,3301.21 2307.81,3293.51 2384.52,3287.89 2460.92,3284.34 2537.01,3282.91 2612.84,3283.57 2688.42,3286.32 2763.79,3291.19 2838.99,3298.17 2914,3307.3 2988.92,3318.57 3063.69,3331.99 3138.38,3347.57 3213.01,3365.33 3287.61,3385.29 3362.21,3407.45 3436.79,3431.84 3511.43,3458.47 3583.51,3486.34 3536.09,3536.09 3485.03,3584.74 3431.72,3630.95 3376.24,3674.59 3318.67,3715.58 3259.14,3753.82 3197.73,3789.21 3134.52,3821.66 3069.61,3851.08 3003.11,3877.37 2935.1,3900.46 2865.68,3920.25 "/>
            <path class="fil3" d="M3826.38 1341.75l75.9 -61.47 59.61 73.62c7.7,8.95 12.66,19.92 14.79,32.73 1.01,6.47 0.15,12.9 -2.51,19.4 -3.18,6.27 -8.75,12.4 -16.83,18.51 -14.75,10.32 -27.99,14.1 -39.8,11.28 -12.34,-2.91 -23.05,-9.97 -32.08,-21.12l-59.08 -72.95zm185.16 -149.94l53.72 66.34c7.07,8.7 12.2,16.38 15.46,22.97 2.78,6.65 3.92,12.33 3.46,17.27 -1.62,9.78 -7.07,18.21 -16.4,25.32 -19.99,16.19 -40.3,12 -61.1,-12.6l-56.41 -69.68 61.27 -49.62zm-178.33 257.28c50.6,63.54 105.23,76.07 164.13,37.71 14.83,-9.96 26.55,-23.9 35.1,-41.77 8.05,-17.82 8.83,-37.34 2.3,-58.54 15.53,7.93 31.17,9.94 47.05,5.98 15.84,-4.05 29.83,-11.69 41.77,-23.09 18.66,-16.74 29.13,-37.05 31.45,-60.84 1.7,-24.05 -8.21,-49.69 -29.75,-76.84l-109.36 -135.03 -282.69 228.94 100 123.48zm-311.54 -458.36c-15.12,19.35 -24.27,38.31 -27.35,56.79 -3.84,18.19 -3.54,35.33 0.85,51.5 10.31,32.99 29.38,60.09 57.1,81.31 30.56,24.31 62.63,37.38 96.45,39.29 16.75,0.35 33.76,-3.89 51,-12.81 16.46,-8.87 32.75,-23.55 48.79,-44.07l147.26 -188.49 -59.61 -46.59 -147.26 188.5c-8.94,11.42 -17.96,19.68 -26.94,24.75 -9.3,4.63 -18.21,6.86 -26.76,6.71 -8.47,-0.41 -16.41,-2.54 -23.87,-6.44 -7.64,-3.5 -14.77,-7.81 -21.49,-13.04 -11.77,-8.77 -19.39,-21.48 -23.12,-38.09 -4.45,-17.05 1.75,-36.62 18.53,-58.63l145.43 -186.15 -59.21 -46.27 -149.8 191.73zm-342.5 -51.58l222.13 113.19 30.07 -58.99 -156.09 -79.53 135.09 -265.12 -66.07 -33.67 -165.13 324.12zm-313.73 -294.66c-0.73,2.69 -1.89,6.05 -3.66,10.03 -15.01,62.25 -11.82,112.25 9.69,149.89 21.33,37.4 54.58,62.21 99.72,74.31 43.68,10.32 80.78,6.45 111.22,-11.68 30.39,-17.27 53.7,-43.66 70.04,-79.19l-73.74 -19.77c-12.68,23.59 -27.57,38.1 -44.67,43.58 -18.12,5.7 -35.86,6.1 -53.29,1.08 -28.1,-8.22 -45.92,-25.75 -53.39,-52.64 -7.91,-26.57 -8.35,-54.54 -1.31,-84.09 0.29,-1.05 0.25,-2.21 -0.07,-3.34 11.01,-38.77 27.48,-67.36 49.27,-85.8 21.15,-17.65 46.53,-22.72 76.27,-15.11 13.68,3.67 24.51,8.84 32.56,15.63 7.78,6.17 13.45,13.02 16.98,20.7 4.38,7.45 6.79,15.09 7.48,22.96 1.03,7.61 1.34,14.85 1.07,21.77l73.71 19.75c6.1,-37.05 -0.42,-70.67 -19.79,-100.75 -19.14,-30.53 -50.16,-51.68 -93.09,-63.53 -98.53,-22.3 -166.92,23.04 -205,136.2zm-531.16 49.15c1.31,21.58 6.01,39.97 14.12,55.18 7.78,15.29 18.46,27.77 32.02,37.22 27.76,18.84 64.52,27.82 110.31,27.02 6.59,-0.12 17.19,-1.49 31.81,-4.02 14.3,-2.69 29.47,-8.11 45.44,-16.16 16.15,-8.03 29.6,-20.32 40.52,-37.06 10.43,-16.12 15.38,-37.47 14.91,-64.03 -0.53,-31.1 -9.2,-53.65 -26.06,-67.52 -17.88,-13.87 -45.22,-24.35 -82.11,-31.47 -30.08,-7.16 -59.22,-13.89 -87.33,-20.25 -10.94,-3.68 -18.63,-8.94 -22.96,-15.62 -4.59,-6.67 -6.74,-13.72 -6.62,-21.14 0.54,-8.27 2.86,-15.07 6.82,-20.36 3.54,-5.21 8.19,-9.35 13.88,-12.39 6.09,-3.23 12.63,-5.7 19.68,-7.51 7.41,-1.5 14.64,-2.2 21.72,-2.32 18.88,-1.35 35.81,1.73 50.77,9.15 14.31,7.51 23,22.04 25.99,43.49l72.86 -1.28c-0.56,-12.81 -3.06,-25.92 -7.6,-39.34 -4.71,-13.41 -12.62,-25.91 -23.6,-37.55 -10.32,-11.53 -24.5,-20.83 -42.67,-27.86 -18.17,-7.09 -40.75,-10.4 -67.91,-9.93 -85.81,3.09 -129.44,40.55 -130.89,112.28 0.28,36.44 12.13,62.21 35.51,77.32 11.43,7.73 24.37,13.92 38.61,18.65 14.52,4.8 30.02,8.83 46.36,12 12.1,1.82 23.77,4.23 35.06,7.33 9.72,2.02 18.61,3.89 26.75,5.68 8.3,2.23 15.44,4.96 21.4,8.32 6.13,2.85 10.84,6.82 14.04,11.9 3.05,5.35 4.51,12.25 4.33,20.68 -1.04,18.16 -9.34,30.28 -25.11,36.28 -15.82,6.44 -33.81,9.63 -53.89,9.65 -18.97,0.65 -35.4,-3.62 -49.41,-12.73 -14.06,-9.04 -21.84,-24 -23.56,-44.88l-73.19 1.27zm-125.97 128.73l73.57 -9.02 -44.32 -361.07 -73.59 9.04 44.34 361.05zm-349.65 91.33l66.8 -17.89 -67.13 -250.5 0.9 -0.25 205.95 213.3 71.03 -19.02 -94.15 -351.38 -66.32 17.77 65.54 244.57 -0.89 0.24 -200.54 -208.4 -75.35 20.2 94.16 351.36zm-323.48 179.69l60.5 -33.53 -125.73 -226.82 0.82 -0.46 251.41 157.16 64.34 -35.65 -176.36 -318.16 -60.05 33.29 122.75 221.44 -0.81 0.45 -244.99 -153.7 -68.22 37.84 176.34 318.14zm-257.84 215.01l204.87 -171.91 -41.3 -49.23 -149.64 125.55 -60.52 -72.1 131.87 -110.65 -40.98 -48.85 -131.86 110.65 -49.71 -59.25 143.55 -120.46 -41.31 -49.22 -198.8 166.81 233.83 278.66zm-145.18 184.25l46.65 -57.61 -232.75 -188.49 67.04 -82.77 -49.95 -40.46 -180.24 222.6 49.93 40.44 66.56 -82.2 232.76 188.49z"/>
            <path class="fil3" d="M2157.31 4368.64c-5.52,59.29 5.37,107.15 32.6,143.39 27.34,36.69 61.92,57.57 103.79,62.93 21.38,2.22 42.02,0.63 61.88,-4.75 20.06,-4.93 40.3,-18.39 60.57,-40.16l3.27 45.99 48.81 4.27 17.1 -195.42 -148.56 -13 -5.34 61.09 83.78 7.33c-9.48,29.81 -24.12,50.04 -44.02,60.75 -20.35,11.09 -42.83,14.27 -67.37,9.51 -24.39,-4.92 -44.12,-17.41 -59.23,-37.18 -15.93,-20.12 -22.16,-51.55 -18.76,-94.27 1.18,-13.45 3.24,-25.62 6.41,-36.44 2.9,-11 6.45,-20.51 10.45,-28.63 8.23,-16.64 17.96,-29.15 29.29,-37.56 11.49,-8.49 23.34,-14.21 35.54,-17.3 12.02,-1.91 23.08,-2.47 33.07,-1.6 13.11,1.14 24.6,4.35 34.39,9.53 9.3,4.96 16.91,10.89 22.74,17.82 11.99,14.93 17.97,27.83 17.97,38.57l73.5 6.44c0.41,-30.7 -10.41,-59.07 -32.44,-84.96 -22.53,-25.86 -54.92,-41.89 -97.12,-48.21 -64.49,-7 -112.65,6.39 -144.48,40.19 -32.49,33.72 -51.83,77.58 -57.84,131.67zm-262.35 -95.72l26.78 -93.39 89.27 25.59c9.32,2.67 16.89,6.25 22.66,10.63 5.37,3.9 9.25,8.69 11.74,14.41 3.66,10.8 3.82,21.89 0.53,33.32 -3.66,14.05 -10.21,24.62 -19.69,31.65 -9.85,7.44 -24.51,8.41 -43.81,2.88l-87.48 -25.09zm-125.38 175.6l69.33 19.88 39.14 -136.55 75.65 21.7c12.64,3.62 22.3,7.62 28.88,11.88 6.34,4.2 10.47,9.05 12.39,14.61 3.1,10.63 2.3,23.21 -2.51,37.54 -3.77,14.35 -7.65,29.4 -11.5,45.31 -1.4,7.32 -2.57,14.78 -3.5,22.59 -1.06,7.41 -1.61,14.81 -1.53,22.2l78.39 22.49 2.73 -9.5c-6.52,-4.24 -9.16,-11.21 -8.16,-20.84 0.39,-9.63 2.24,-20.69 5.48,-33.18 2.33,-6.01 4.2,-11.26 5.44,-15.63 1.44,-4.95 2.85,-9.9 4.25,-14.75 2.51,-8.76 4.57,-17.21 6.33,-25.47 0.81,-4.08 1.28,-8.16 1.4,-12.25 0,-3.94 -0.41,-7.75 -1.04,-11.33 -1.79,-15.8 -11.1,-29.52 -27.95,-41.19 19.31,-1.84 35.95,-9.09 49.77,-21.8 13.25,-12.26 22.73,-28.14 28.33,-47.68 6.82,-24.97 4.64,-49.55 -6.53,-73.9 -10.86,-24.89 -34.88,-42.99 -71.99,-54.33l-172.53 -49.47 -100.27 349.67zm-335.61 -165.45l238.3 121.43 29.17 -57.27 -174.05 -88.67 42.74 -83.87 153.38 78.15 28.93 -56.81 -153.37 -78.15 35.12 -68.92 166.98 85.08 29.18 -57.26 -231.24 -117.83 -165.14 324.12zm-225.19 -245.08l61.46 -75.9 73.61 59.6c9.39,7.19 16.52,16.85 21.27,28.94 2.32,6.13 2.83,12.61 1.57,19.52 -1.81,6.77 -5.98,13.94 -12.61,21.59 -12.28,13.16 -24.44,19.6 -36.58,19.32 -12.67,-0.29 -24.62,-4.97 -35.77,-13.99l-72.95 -59.08zm149.94 -185.17l66.33 53.72c8.72,7.06 15.32,13.51 19.9,19.26 4.11,5.92 6.39,11.26 6.98,16.17 0.43,9.92 -3.13,19.29 -10.77,28.18 -16.2,19.99 -36.92,20.14 -62.39,0.39l-69.68 -56.42 49.63 -61.3zm-120.94 288.75c62.7,51.63 118.73,52.52 168.38,2.75 12.44,-12.82 20.99,-28.9 25.63,-48.15 4.17,-19.1 0.88,-38.36 -9.9,-57.74 16.85,4.54 32.54,3.24 47.26,-3.94 14.66,-7.23 26.75,-17.62 36.05,-31.25 14.77,-20.27 20.8,-42.31 18.12,-66.08 -3.35,-23.87 -18.35,-46.87 -45.08,-68.95l-135.03 -109.34 -228.92 282.69 123.49 100.01zm-361.21 -348.39l163.56 188.16 49.97 -43.43 -114.93 -132.21 224.57 -195.21 -48.65 -55.96 -274.52 238.65zm-37.92 -405.74c20.21,-10.2 38.66,-16.38 55.27,-18.46 16.37,-2.36 30.54,-1.77 42.56,1.53 12.5,3.59 23.25,8.87 31.98,15.92 8.29,7.09 14.5,14.8 18.59,23.24 11.31,20.27 15.96,38.62 13.92,55.17 -2.42,16.39 -8.26,30.87 -17.74,43.46 -9.45,12.65 -20.07,23.27 -31.83,31.91 -11.94,8.36 -22.23,14.98 -30.93,20.01 -10.87,6.27 -22.91,11.76 -36.16,16.48 -13.65,4 -27.78,6.02 -42.34,5.76 -14.37,0.11 -27.95,-3.36 -40.57,-10.38 -12.96,-7.11 -24.11,-18.31 -33.25,-33.48 -16.88,-33.11 -16.66,-62.76 0.63,-88.8 16.92,-26.03 40.26,-46.82 69.87,-62.36zm-60.49 -48.93c-40.77,26.19 -68.18,60.02 -82.06,101.44 -14.58,41.72 -8.92,85.59 16.88,131.65 56.76,94.43 139.8,111.73 249.12,51.94 60.01,-35.72 94.71,-75.82 104.02,-120.26 9.75,-44.17 3.04,-84.82 -20.04,-121.75 -33.13,-53.51 -73.03,-82.11 -119.53,-85.93 -46.88,-4.09 -96.28,10.2 -148.39,42.91zm-231.37 -145.5l25.35 69.68 281.44 -102.44 36.43 100.11 60.4 -22 -97.98 -269.13 -60.38 21.97 36.18 99.38 -281.44 102.43zm0.13 -476.05c-21.1,4.66 -38.54,12.18 -52.28,22.58 -13.9,10.07 -24.55,22.56 -31.77,37.45 -14.25,30.36 -17.37,68.07 -9.41,113.17 1.14,6.49 4.15,16.75 8.93,30.79 4.9,13.71 12.63,27.84 23.06,42.36 10.47,14.68 24.71,26.06 42.94,34.23 17.55,7.77 39.42,9.32 65.58,4.7 30.65,-5.4 51.55,-17.48 62.62,-36.32 10.9,-19.81 16.99,-48.45 18.24,-86.01 2.36,-30.83 4.47,-60.65 6.33,-89.41 1.93,-11.39 5.93,-19.82 11.83,-25.15 5.87,-5.55 12.51,-8.79 19.86,-9.82 8.26,-0.78 15.33,0.46 21.19,3.54 5.67,2.68 10.49,6.63 14.39,11.76 4.15,5.53 7.61,11.59 10.51,18.29 2.62,7.06 4.45,14.1 5.68,21.09 4.27,18.42 3.89,35.63 -1.1,51.57 -5.17,15.29 -18.16,26.16 -38.89,32.47l12.65 71.75c12.58,-2.55 25.13,-7.07 37.68,-13.65 12.51,-6.74 23.63,-16.5 33.4,-29.18 9.78,-12.01 16.73,-27.46 20.83,-46.5 4.18,-19.07 3.92,-41.89 -0.81,-68.64 -16.48,-84.27 -60.29,-121.5 -131.37,-111.71 -35.95,5.99 -59.55,21.72 -70.81,47.17 -5.86,12.5 -9.93,26.25 -12.38,41.07 -2.47,15.07 -4.04,31.03 -4.6,47.64 0.08,12.24 -0.46,24.15 -1.75,35.78 -0.48,9.93 -0.93,18.99 -1.44,27.32 -0.89,8.54 -2.49,16.01 -4.86,22.44 -1.85,6.48 -5.05,11.76 -9.57,15.73 -4.8,3.84 -11.37,6.36 -19.73,7.5 -18.1,1.83 -31.37,-4.49 -39.77,-19.11 -8.84,-14.62 -14.79,-31.9 -17.95,-51.73 -3.62,-18.63 -1.98,-35.55 4.83,-50.78 6.72,-15.32 20.29,-25.33 40.66,-30.3l-12.72 -72.09z"/>
            <path class="fil3" d="M4444.55 2844.07l104.18 10.96 10.74 -102.26 -104.18 -10.95 -10.74 102.25zm34.12 280.76l17.96 -67.04 -92.15 -60.84 -228.25 -148.92 -19.75 73.74 14.65 9.16 232.06 136.3 -0.23 0.9 -17.53 0.28 -268.55 1.12 -20.33 75.86 109.73 -6.04 272.39 -14.52zm-100.86 252.04l30.16 -67.72 -67.26 -29.95 -30.17 67.72 67.27 29.95zm-178.44 316.41l141.74 -226.81 -54.51 -34.05 -103.51 165.65 -79.82 -49.87 91.21 -145.98 -54.08 -33.8 -91.21 145.99 -65.59 -40.99 99.32 -158.92 -54.51 -34.07 -137.52 220.09 308.48 192.76zm-225.29 271.59l-40.85 -46.98 -118.02 102.59c-1.75,-6.52 -2.29,-14.09 -1.75,-22.72 0.93,-8.18 2.63,-17.04 5.21,-26.42 4.79,-19.04 10.16,-39.58 16.03,-61.77 6.01,-22 7.94,-44.46 5.95,-67.33 -1.98,-22.07 -11.53,-42.84 -28.77,-62.15 -26.94,-28.54 -54.91,-42.34 -83.97,-41.56 -29.68,0.68 -57.87,13.1 -84.56,37.18 -29.33,27.19 -43.01,55.95 -41.05,86.1 2,30.33 14.67,58.77 38.16,85.29l52.2 -45.38c-2.13,-2.94 -5.52,-7.37 -10.25,-13.33 -4.17,-5.31 -7.85,-11.73 -11.1,-19.19 -3.28,-7.76 -4,-16.29 -2.21,-25.55 1.91,-8.59 7.95,-17.32 18.15,-26.18 8.09,-7.02 15.56,-11.4 22.62,-13.19 7.57,-1.55 14.5,-1.31 20.77,0.61 6.36,1.3 11.94,3.61 16.84,6.93 4.59,3.72 8.17,7.2 11,10.45 14.08,16.6 20.1,35.6 18.14,56.87 -2.3,21.66 -7.13,48.9 -14.52,81.79 -6.25,24.54 -8.57,50.04 -6.88,76.27 2.01,26.87 14.93,54.98 38.71,84.27l180.15 -156.6zm-502.04 247.78c15.9,25.39 37.58,43.04 64.92,52.96 27.42,10.5 59.79,4.95 97.17,-16.71 35.62,-24.43 55.43,-51.92 59.19,-82.55 3.62,-30.22 -2.09,-56.78 -17.09,-79.63 -10.66,-17.01 -23.67,-30.11 -39.04,-39.48 -7.93,-4.33 -16.49,-7.09 -25.76,-8.17 -9.13,-0.85 -18.74,0.44 -29.03,3.71 -0.15,-0.21 -0.33,-0.48 -0.52,-0.76 5.08,-9.22 8.35,-19.77 9.65,-31.55 1.34,-11.88 -0.62,-24.29 -6.05,-37.31 -13.04,-27.02 -33.15,-44.79 -60.27,-53.46 -27.13,-8.55 -58.31,-1.86 -93.67,19.95 -33.96,23.71 -51.51,50.31 -52.58,79.82 -1.32,29.39 6.47,55.87 23.48,79.28l54.89 -37.01c-11.98,-17.15 -16.63,-32.22 -14.11,-45.22 2.74,-12.53 9.88,-22.74 21.63,-30.67 0.29,-0.18 0.56,-0.38 0.85,-0.56 11.45,-7.75 23.28,-10.12 35.41,-7.21 12.07,3.56 22.69,13.28 31.88,29.16 12.47,26.49 -0.12,50.35 -37.86,71.63l28.67 42.51c1.13,-0.76 2.52,-1.71 4.27,-2.88 42.7,-29.62 74.19,-27.55 94.45,6.09 8.19,14.4 10.68,27.89 7.69,40.5 -2.51,13.17 -9.4,23.63 -20.87,31.36 -10.61,7.95 -22.86,11.04 -36.95,9.34 -6.98,-1.17 -14.2,-4.34 -21.65,-9.19 -7.25,-4.87 -14.63,-12.2 -22.13,-22.1l-56.57 38.15zm-244.57 -98.02c15.83,-7.77 30.42,-8.61 43.8,-2.47 13.04,7.04 23.25,18.09 30.56,33.21 18.91,37.33 12.94,64.87 -17.83,82.49 -17.37,8.46 -32.26,8.24 -44.81,-0.71 -5.84,-4.34 -11.43,-9.74 -16.72,-16.11 -5.12,-6.36 -9.48,-13.53 -13.16,-21.41 -6.7,-14.38 -9.1,-28.33 -7.2,-41.98 2.12,-13.45 10.49,-24.42 25.36,-33.02zm-7.64 244.86c13.17,22.8 32.4,37.94 57.9,45.3 25.36,7.89 52.53,5.3 81.41,-7.81 22.91,-12.17 39.22,-27.04 48.98,-44.62 9.57,-17.21 14.66,-35.86 15.1,-56.06 0.37,-20.76 -2.39,-41.62 -8.11,-62.68 -6.53,-20.77 -14.35,-40.96 -23.47,-60.51 -5.73,-11.48 -10.98,-22.34 -15.8,-32.66 -49.54,-85.5 -108.07,-111.25 -175.53,-77.28 -65.67,35.56 -82.7,89.27 -51.08,161.26 17.55,36.02 40.3,58.08 68.41,66.28 27.54,8.75 53.53,7.24 78.01,-4.55 12.04,-5.9 22.41,-13.41 31.1,-22.3 8.58,-8.76 13.86,-19.96 15.78,-33.61l1.27 0.53c14.45,31.58 19.95,56.95 16.6,75.91 -3.31,19.23 -11.55,31.9 -24.54,37.97 -21.62,11.09 -39.38,6.35 -53.34,-14.39l-62.69 29.22zm-174.17 142.79l66.49 -19.06 -99.08 -345.54 -54.08 15.51c3.78,19.61 -0.01,36.67 -11.49,51.11 -11.59,15.25 -32.86,27.06 -63.86,35.25l13.7 47.75 80.1 -22.97 68.22 237.95z"/>
            <path class="fil1" d="M3663.02 2591.14c0,16.37 0,32.27 0,47.89 0.77,35.89 13.62,62.35 38.66,79.5 24.65,17.04 52.93,25.59 85.02,25.59 38.84,0.39 70.45,-10.84 94.74,-33.69 24.45,-22.95 35.02,-62.74 31.88,-119.39 -0.77,-14.86 -3.43,-28.18 -8.09,-39.89 -5.23,-11.52 -11.71,-21.52 -19.42,-29.82 -16.19,-16.75 -34.46,-30.65 -54.84,-41.59 -20.19,-11.52 -37.23,-22.75 -51.31,-33.7 -14.76,-11.15 -22,-24.94 -21.62,-41.32 1.15,-7.04 2.75,-12.95 4.86,-17.53 2,-4.66 4.47,-7.89 7.33,-9.8 2.86,-2.18 6,-3.71 9.43,-4.47 3.24,-0.38 6.37,-0.57 9.42,-0.57 11.71,0 20.75,4.57 27.04,13.7 6.29,9.53 8.95,25.43 7.81,47.99l89.39 0c0,-2.67 0,-5.71 0,-9.23 -0.77,-46.08 -13.41,-79.6 -38.09,-100.35 -24.65,-20.28 -54.16,-30.09 -88.53,-29.31 -72.92,1.79 -112.52,38.82 -118.82,110.8 0,2.97 -0.37,6.58 -1.05,10.67 1.43,33.32 9.92,59.59 25.33,79.01 7.71,9.81 16.47,18.76 26.17,26.75 9.15,7.73 18.58,14.96 28.1,21.81 9.9,6.19 19.7,12.09 29.41,17.9 9.52,5.62 18,11.43 25.33,17.61 15.52,11.53 23.42,26.19 23.79,44.09 -0.75,30.56 -13.13,44.93 -37.12,43.32 -9.81,-0.39 -17.99,-4.01 -24.65,-10.95 -7.24,-5.92 -10.86,-16.38 -10.86,-31.23l0 -33.79 -89.31 0zm-285.61 0c0,16.37 0,32.27 0,47.89 0.76,35.89 13.61,62.35 38.66,79.5 24.66,17.04 52.93,25.59 85.01,25.59 38.85,0.39 70.46,-10.84 94.74,-33.69 24.45,-22.95 35.03,-62.74 31.89,-119.39 -0.77,-14.86 -3.43,-28.18 -8.09,-39.89 -5.24,-11.52 -11.72,-21.52 -19.43,-29.82 -16.18,-16.75 -34.47,-30.65 -54.83,-41.59 -20.19,-11.52 -37.23,-22.75 -51.33,-33.7 -14.76,-11.15 -21.99,-24.94 -21.59,-41.32 1.14,-7.04 2.75,-12.95 4.83,-17.53 2,-4.66 4.49,-7.89 7.34,-9.8 2.86,-2.18 6.01,-3.71 9.42,-4.47 3.25,-0.38 6.38,-0.57 9.43,-0.57 11.7,0 20.76,4.57 27.05,13.7 6.27,9.53 8.93,25.43 7.81,47.99l89.39 0c0,-2.67 0,-5.71 0,-9.23 -0.77,-46.08 -13.43,-79.6 -38.09,-100.35 -24.65,-20.28 -54.16,-30.09 -88.54,-29.31 -72.93,1.79 -112.53,38.82 -118.81,110.8 0,2.97 -0.39,6.58 -1.06,10.67 1.43,33.32 9.91,59.59 25.34,79.01 7.7,9.81 16.47,18.76 26.17,26.75 9.15,7.73 18.58,14.96 28.1,21.81 9.9,6.19 19.71,12.09 29.4,17.9 9.53,5.62 18,11.43 25.33,17.61 15.51,11.53 23.42,26.19 23.8,44.09 -0.76,30.56 -13.13,44.93 -37.13,43.32 -9.8,-0.39 -18,-4.01 -24.66,-10.95 -7.24,-5.92 -10.85,-16.38 -10.85,-31.23l0 -33.79 -89.3 0zm-138.91 142.71l98.16 0 0 -429.58 -98.16 0 0 429.58zm-289.51 0l233.35 0 0 -85.4 -132.92 0 0 -93.69 121.87 0 0 -85.39 -121.87 0 0 -79.7 125.11 0 0 -85.4 -225.54 0 0 429.58zm-393.3 0l108.07 0 32.65 -301.14 1.14 0 29.71 301.14 109.67 0 69.11 -428.44 -91.87 0 -31.6 300 -1.06 1.05 -36.45 -301.05 -93.97 0 -40.55 300 -1.05 1.05 -28.66 -301.05 -94.25 0 69.11 428.44zm-240.67 -135l137.19 0 0 -85.88 -137.19 0 0 85.88zm-320.75 -293.44l0 314.57c1.81,85.77 48.46,127.09 139.76,124.14 83.88,-1.51 126.53,-43.61 127.95,-126.33l0 -312.38 -98.16 0 0 323.41c-0.37,11.92 -2.75,21.05 -7.23,27.34 -5.03,7.32 -13.52,10.95 -25.33,10.95 -23.14,-0.39 -35.22,-11.52 -36.56,-33.51l0 -328.19 -100.43 0zm-213.83 270.58l27.51 -192.31 28.28 192.31 -55.79 0zm-121.2 157.86l98.53 0 11.53 -82.56 76.92 0 12.66 82.56 98.26 0 -89.59 -428.44 -117.68 0 -90.63 428.44zm-236.78 0l217.17 0 0 -85.4 -119 0 0 -344.18 -98.17 0 0 429.58zm-216.21 -351.21c10.58,0 20.1,0.18 28.56,0.57 8.48,0.66 15.61,2.18 21.52,4.47 12.58,4.29 18.66,16.27 18.28,36.08 0.38,19.04 -3.62,32.18 -12.09,39.41 -8.86,7.71 -27.61,11.33 -56.27,10.95l0 -91.48zm0 168.51c27.71,-0.39 47.22,2.56 58.74,8.94 11.63,7.62 17.05,22.38 16.09,44.18 0,8.37 -0.37,16 -1.14,22.85 -1.23,6.94 -4.09,12.85 -8.84,17.89 -8.77,9.92 -30.39,13.91 -64.85,12.01l0 -105.87zm-100.44 182.7l141.77 0c88.35,-0.77 131.95,-42.38 130.81,-125.02 0.38,-27.13 -3.06,-47.6 -10.09,-61.3 -7.35,-13.99 -22.19,-27.23 -44.67,-39.89 6.49,-4.09 12.68,-8.67 18.38,-13.71 5.81,-4.96 10.85,-11.14 15.34,-18.37 4.65,-7.25 8.47,-16.19 11.41,-26.77 2.68,-10.27 3.91,-22.94 3.91,-38.26 -1.8,-39.24 -15.32,-66.84 -40.46,-82.84 -24.75,-15.22 -54.84,-22.65 -90.45,-22.28l-135.95 0 0 428.44z"/>
            <path class="fil1" d="M2500 344.31c1187.32,0 2155.69,968.38 2155.69,2155.68 0,1187.33 -968.37,2155.7 -2155.69,2155.7 -1187.31,0 -2155.69,-968.37 -2155.69,-2155.7 0,-1187.3 968.38,-2155.68 2155.69,-2155.68z"/>
            <path class="fil0" d="M2500 872.06c896.64,0 1627.94,731.3 1627.94,1627.93 0,896.66 -731.3,1627.96 -1627.94,1627.96 -896.64,0 -1627.94,-731.3 -1627.94,-1627.96 0,-896.63 731.3,-1627.93 1627.94,-1627.93z"/>
            <polygon class="fil3" points="2500,965.29 2578.82,967.3 2656.58,973.23 2733.2,983.03 2808.62,996.57 2882.72,1013.73 2955.42,1034.46 3026.62,1058.63 3096.24,1086.17 3164.17,1116.96 3230.32,1150.93 3294.58,1187.96 3356.88,1227.96 3417.09,1270.82 3475.14,1316.48 3530.9,1364.81 3584.28,1415.71 3635.18,1469.11 3683.52,1524.87 3695.84,1540.53 3687.9,1544.07 3611.52,1575.9 3535.16,1605.41 3458.83,1632.66 3382.49,1657.61 3306.13,1680.31 3229.71,1700.75 3153.23,1718.95 3076.67,1734.93 3000,1748.69 2923.19,1760.24 2846.25,1769.6 2769.15,1776.77 2691.87,1781.76 2614.37,1784.59 2536.66,1785.26 2458.69,1783.78 2380.46,1780.16 2301.92,1774.41 2223.11,1766.53 2143.95,1756.52 2064.46,1744.42 1984.6,1730.21 1904.37,1713.92 1823.74,1695.53 1742.69,1675.06 1661.22,1652.53 1579.29,1627.91 1496.9,1601.26 1414.02,1572.55 1330.66,1541.8 1312.98,1529.31 1316.48,1524.87 1364.81,1469.11 1415.71,1415.71 1469.09,1364.81 1524.86,1316.48 1582.9,1270.82 1643.11,1227.96 1705.42,1187.96 1769.68,1150.93 1835.83,1116.96 1903.77,1086.17 1973.38,1058.63 2044.59,1034.46 2117.28,1013.73 2191.39,996.57 2266.79,983.03 2343.42,973.23 2421.2,967.3 "/>
            <polygon class="fil3" points="3753.38,1616.91 3772.05,1643.13 3812.04,1705.41 3849.08,1769.68 3883.04,1835.84 3913.83,1903.76 3941.35,1973.38 3965.54,2044.59 3986.26,2117.29 4003.44,2191.39 4016.95,2266.79 4026.75,2343.42 4032.71,2421.19 4034.71,2499.99 4032.71,2578.83 4026.75,2656.57 4016.95,2733.22 4003.44,2808.62 3986.26,2882.72 3965.54,2955.41 3941.35,3026.63 3913.83,3096.23 3883.04,3164.17 3849.08,3230.32 3812.04,3294.59 3772.05,3356.88 3753.38,3383.1 3724.82,3370.34 3646.27,3337.61 3567.65,3307.21 3488.99,3279.14 3410.26,3253.41 3331.46,3229.98 3252.55,3208.88 3173.55,3190.08 3094.41,3173.57 3015.16,3159.35 2935.76,3147.39 2856.22,3137.72 2776.48,3130.31 2696.57,3125.14 2616.48,3122.23 2536.17,3121.53 2455.66,3123.07 2374.89,3126.8 2293.89,3132.73 2212.63,3140.85 2131.1,3151.16 2049.28,3163.6 1967.16,3178.21 1884.73,3194.97 1801.97,3213.83 1718.85,3234.83 1635.38,3257.92 1551.54,3283.09 1467.28,3310.36 1382.63,3339.69 1297.56,3371.06 1251,3389.26 1227.95,3356.88 1187.96,3294.59 1150.92,3230.32 1116.97,3164.17 1086.15,3096.23 1058.63,3026.63 1034.46,2955.41 1013.73,2882.72 996.56,2808.62 983.03,2733.22 973.24,2656.57 967.3,2578.83 965.29,2499.99 967.3,2421.19 973.24,2343.42 983.03,2266.79 996.56,2191.39 1013.73,2117.29 1034.46,2044.59 1058.63,1973.38 1086.15,1903.76 1116.97,1835.84 1150.92,1769.68 1187.96,1705.41 1227.95,1643.13 1251,1610.74 1297.56,1628.95 1382.63,1660.32 1467.28,1689.65 1551.54,1716.9 1635.38,1742.08 1718.85,1765.17 1801.97,1786.17 1884.73,1805.04 1967.16,1821.79 2049.28,1836.39 2131.1,1848.85 2212.63,1859.14 2293.89,1867.26 2374.89,1873.21 2455.66,1876.94 2536.17,1878.47 2616.48,1877.77 2696.57,1874.85 2776.48,1869.7 2856.22,1862.28 2935.76,1852.61 3015.16,1840.65 3094.41,1826.44 3173.55,1809.92 3252.55,1791.12 3331.46,1770.02 3410.26,1746.6 3488.99,1720.86 3567.65,1692.79 3646.27,1662.39 3724.82,1629.66 "/>
            <polygon class="fil3" points="3695.84,3459.47 3683.52,3475.14 3635.18,3530.9 3584.28,3584.3 3530.9,3635.19 3475.14,3683.53 3417.09,3729.18 3356.88,3772.04 3294.58,3812.04 3230.32,3849.08 3164.17,3883.03 3096.24,3913.83 3026.62,3941.38 2955.42,3965.54 2882.72,3986.28 2808.62,4003.44 2733.2,4016.98 2656.58,4026.76 2578.82,4032.71 2500,4034.71 2421.2,4032.71 2343.42,4026.76 2266.79,4016.98 2191.39,4003.44 2117.28,3986.28 2044.59,3965.54 1973.38,3941.38 1903.77,3913.83 1835.83,3883.03 1769.68,3849.08 1705.42,3812.04 1643.11,3772.04 1582.9,3729.18 1524.86,3683.53 1469.09,3635.19 1415.71,3584.3 1364.81,3530.9 1316.48,3475.14 1312.98,3470.7 1330.66,3458.21 1414.02,3427.46 1496.9,3398.74 1579.29,3372.08 1661.22,3347.48 1742.69,3324.93 1823.74,3304.47 1904.37,3286.09 1984.6,3269.79 2064.46,3255.57 2143.95,3243.48 2223.11,3233.48 2301.92,3225.6 2380.46,3219.85 2458.69,3216.23 2536.66,3214.75 2614.37,3215.41 2691.87,3218.24 2769.15,3223.24 2846.25,3230.41 2923.19,3239.77 3000,3251.31 3076.67,3265.08 3153.23,3281.06 3229.71,3299.25 3306.13,3319.7 3382.49,3342.4 3458.83,3367.35 3535.16,3394.57 3611.52,3424.1 3687.9,3455.93 "/>
            <polygon class="fil3" points="3376.24,1325.41 3431.72,1369.04 3485.03,1415.25 3536.09,1463.92 3583.51,1513.66 3511.43,1541.53 3436.79,1568.15 3362.21,1592.55 3287.61,1614.71 3213.01,1634.67 3138.38,1652.44 3063.69,1668 2988.9,1681.44 2914.02,1692.7 2838.99,1701.82 2763.79,1708.81 2688.42,1713.69 2612.84,1716.44 2537.01,1717.1 2460.92,1715.66 2384.52,1712.12 2307.81,1706.5 2230.76,1698.8 2153.35,1689.03 2075.56,1677.16 1997.36,1663.27 1918.74,1647.29 1839.66,1629.25 1760.13,1609.17 1680.1,1587.03 1599.58,1562.84 1518.55,1536.63 1436.98,1508.38 1425.55,1504.16 1463.92,1463.92 1514.95,1415.25 1568.26,1369.04 1623.75,1325.41 1681.32,1284.42 1740.85,1246.19 1802.28,1210.8 1865.49,1178.35 1930.38,1148.93 1996.87,1122.64 2064.9,1099.54 2134.33,1079.75 2205.1,1063.35 2277.14,1050.42 2350.34,1041.06 2424.65,1035.4 2500,1033.47 2575.35,1035.4 2649.66,1041.06 2722.86,1050.42 2794.89,1063.35 2865.68,1079.75 2935.1,1099.54 3003.11,1122.64 3069.61,1148.93 3134.5,1178.35 3197.73,1210.8 3259.14,1246.19 3318.67,1284.42 "/>
            <polygon class="fil3" points="3949.57,2722.86 3936.66,2794.9 3920.25,2865.68 3900.46,2935.11 3877.37,3003.11 3851.06,3069.61 3821.64,3134.51 3789.2,3197.73 3753.8,3259.13 3728.78,3298.14 3671.66,3274.34 3591.4,3243.31 3511.03,3214.64 3430.57,3188.34 3349.96,3164.39 3269.25,3142.8 3188.42,3123.55 3107.4,3106.64 3026.26,3092.1 2944.95,3079.86 2863.48,3069.96 2781.83,3062.36 2700.02,3057.09 2618.01,3054.09 2535.82,3053.38 2453.43,3054.94 2370.83,3058.76 2288.01,3064.83 2204.96,3073.14 2121.69,3083.65 2038.18,3096.35 1954.4,3111.27 1870.36,3128.33 1786.04,3147.58 1701.43,3168.93 1616.49,3192.43 1531.25,3218.03 1445.64,3245.72 1359.69,3275.52 1276.42,3306.22 1246.19,3259.13 1210.79,3197.73 1178.35,3134.5 1148.93,3069.61 1122.62,3003.13 1099.53,2935.11 1079.75,2865.68 1063.34,2794.9 1050.42,2722.86 1041.06,2649.67 1035.37,2575.36 1033.47,2499.99 1035.37,2424.65 1041.06,2350.34 1050.42,2277.14 1063.34,2205.1 1079.75,2134.33 1099.53,2064.9 1122.64,1996.89 1148.93,1930.37 1178.35,1865.5 1210.79,1802.28 1246.19,1740.86 1276.42,1693.79 1359.69,1724.49 1445.64,1754.27 1531.23,1781.97 1616.49,1807.58 1701.43,1831.07 1786.04,1852.43 1870.36,1871.66 1954.4,1888.74 2038.18,1903.65 2121.69,1916.36 2204.96,1926.87 2288.01,1935.18 2370.83,1941.23 2453.43,1945.05 2535.82,1946.62 2618.01,1945.92 2700.02,1942.92 2781.83,1937.64 2863.48,1930.05 2944.95,1920.15 3026.26,1907.9 3107.4,1893.36 3188.42,1876.45 3269.25,1857.2 3349.96,1835.62 3430.57,1811.67 3511.03,1785.37 3591.4,1756.69 3671.66,1725.66 3728.76,1701.87 3753.8,1740.86 3789.2,1802.28 3821.64,1865.48 3851.06,1930.37 3877.37,1996.89 3900.46,2064.9 3920.25,2134.33 3936.66,2205.1 3949.57,2277.14 3958.93,2350.34 3964.62,2424.65 3966.53,2499.99 3964.62,2575.36 3958.93,2649.67 "/>
            <polygon class="fil3" points="2794.89,3936.66 2722.86,3949.58 2649.66,3958.94 2575.35,3964.61 2500,3966.54 2424.65,3964.61 2350.34,3958.94 2277.14,3949.58 2205.1,3936.66 2134.33,3920.25 2064.9,3900.46 1996.89,3877.37 1930.38,3851.08 1865.49,3821.66 1802.28,3789.21 1740.85,3753.82 1681.32,3715.58 1623.75,3674.59 1568.26,3630.95 1514.95,3584.74 1463.92,3536.09 1425.55,3495.83 1436.98,3491.62 1518.55,3463.38 1599.58,3437.14 1680.1,3412.98 1760.13,3390.83 1839.66,3370.74 1918.74,3352.71 1997.36,3336.74 2075.56,3322.82 2153.35,3310.97 2230.76,3301.21 2307.81,3293.51 2384.52,3287.89 2460.92,3284.34 2537.01,3282.91 2612.84,3283.57 2688.42,3286.32 2763.79,3291.19 2838.99,3298.17 2914,3307.3 2988.92,3318.57 3063.69,3331.99 3138.38,3347.57 3213.01,3365.33 3287.61,3385.29 3362.21,3407.45 3436.79,3431.84 3511.43,3458.47 3583.51,3486.34 3536.09,3536.09 3485.03,3584.74 3431.72,3630.95 3376.24,3674.59 3318.67,3715.58 3259.14,3753.82 3197.73,3789.21 3134.52,3821.66 3069.61,3851.08 3003.11,3877.37 2935.1,3900.46 2865.68,3920.25 "/>
            <path class="fil3" d="M3826.38 1341.75l75.9 -61.47 59.61 73.62c7.7,8.95 12.66,19.92 14.79,32.73 1.01,6.47 0.15,12.9 -2.51,19.4 -3.18,6.27 -8.75,12.4 -16.83,18.51 -14.75,10.32 -27.99,14.1 -39.8,11.28 -12.34,-2.91 -23.05,-9.97 -32.08,-21.12l-59.08 -72.95zm185.16 -149.94l53.72 66.34c7.07,8.7 12.2,16.38 15.46,22.97 2.78,6.65 3.92,12.33 3.46,17.27 -1.62,9.78 -7.07,18.21 -16.4,25.32 -19.99,16.19 -40.3,12 -61.1,-12.6l-56.41 -69.68 61.27 -49.62zm-178.33 257.28c50.6,63.54 105.23,76.07 164.13,37.71 14.83,-9.96 26.55,-23.9 35.1,-41.77 8.05,-17.82 8.83,-37.34 2.3,-58.54 15.53,7.93 31.17,9.94 47.05,5.98 15.84,-4.05 29.83,-11.69 41.77,-23.09 18.66,-16.74 29.13,-37.05 31.45,-60.84 1.7,-24.05 -8.21,-49.69 -29.75,-76.84l-109.36 -135.03 -282.69 228.94 100 123.48zm-311.54 -458.36c-15.12,19.35 -24.27,38.31 -27.35,56.79 -3.84,18.19 -3.54,35.33 0.85,51.5 10.31,32.99 29.38,60.09 57.1,81.31 30.56,24.31 62.63,37.38 96.45,39.29 16.75,0.35 33.76,-3.89 51,-12.81 16.46,-8.87 32.75,-23.55 48.79,-44.07l147.26 -188.49 -59.61 -46.59 -147.26 188.5c-8.94,11.42 -17.96,19.68 -26.94,24.75 -9.3,4.63 -18.21,6.86 -26.76,6.71 -8.47,-0.41 -16.41,-2.54 -23.87,-6.44 -7.64,-3.5 -14.77,-7.81 -21.49,-13.04 -11.77,-8.77 -19.39,-21.48 -23.12,-38.09 -4.45,-17.05 1.75,-36.62 18.53,-58.63l145.43 -186.15 -59.21 -46.27 -149.8 191.73zm-342.5 -51.58l222.13 113.19 30.07 -58.99 -156.09 -79.53 135.09 -265.12 -66.07 -33.67 -165.13 324.12zm-313.73 -294.66c-0.73,2.69 -1.89,6.05 -3.66,10.03 -15.01,62.25 -11.82,112.25 9.69,149.89 21.33,37.4 54.58,62.21 99.72,74.31 43.68,10.32 80.78,6.45 111.22,-11.68 30.39,-17.27 53.7,-43.66 70.04,-79.19l-73.74 -19.77c-12.68,23.59 -27.57,38.1 -44.67,43.58 -18.12,5.7 -35.86,6.1 -53.29,1.08 -28.1,-8.22 -45.92,-25.75 -53.39,-52.64 -7.91,-26.57 -8.35,-54.54 -1.31,-84.09 0.29,-1.05 0.25,-2.21 -0.07,-3.34 11.01,-38.77 27.48,-67.36 49.27,-85.8 21.15,-17.65 46.53,-22.72 76.27,-15.11 13.68,3.67 24.51,8.84 32.56,15.63 7.78,6.17 13.45,13.02 16.98,20.7 4.38,7.45 6.79,15.09 7.48,22.96 1.03,7.61 1.34,14.85 1.07,21.77l73.71 19.75c6.1,-37.05 -0.42,-70.67 -19.79,-100.75 -19.14,-30.53 -50.16,-51.68 -93.09,-63.53 -98.53,-22.3 -166.92,23.04 -205,136.2zm-531.16 49.15c1.31,21.58 6.01,39.97 14.12,55.18 7.78,15.29 18.46,27.77 32.02,37.22 27.76,18.84 64.52,27.82 110.31,27.02 6.59,-0.12 17.19,-1.49 31.81,-4.02 14.3,-2.69 29.47,-8.11 45.44,-16.16 16.15,-8.03 29.6,-20.32 40.52,-37.06 10.43,-16.12 15.38,-37.47 14.91,-64.03 -0.53,-31.1 -9.2,-53.65 -26.06,-67.52 -17.88,-13.87 -45.22,-24.35 -82.11,-31.47 -30.08,-7.16 -59.22,-13.89 -87.33,-20.25 -10.94,-3.68 -18.63,-8.94 -22.96,-15.62 -4.59,-6.67 -6.74,-13.72 -6.62,-21.14 0.54,-8.27 2.86,-15.07 6.82,-20.36 3.54,-5.21 8.19,-9.35 13.88,-12.39 6.09,-3.23 12.63,-5.7 19.68,-7.51 7.41,-1.5 14.64,-2.2 21.72,-2.32 18.88,-1.35 35.81,1.73 50.77,9.15 14.31,7.51 23,22.04 25.99,43.49l72.86 -1.28c-0.56,-12.81 -3.06,-25.92 -7.6,-39.34 -4.71,-13.41 -12.62,-25.91 -23.6,-37.55 -10.32,-11.53 -24.5,-20.83 -42.67,-27.86 -18.17,-7.09 -40.75,-10.4 -67.91,-9.93 -85.81,3.09 -129.44,40.55 -130.89,112.28 0.28,36.44 12.13,62.21 35.51,77.32 11.43,7.73 24.37,13.92 38.61,18.65 14.52,4.8 30.02,8.83 46.36,12 12.1,1.82 23.77,4.23 35.06,7.33 9.72,2.02 18.61,3.89 26.75,5.68 8.3,2.23 15.44,4.96 21.4,8.32 6.13,2.85 10.84,6.82 14.04,11.9 3.05,5.35 4.51,12.25 4.33,20.68 -1.04,18.16 -9.34,30.28 -25.11,36.28 -15.82,6.44 -33.81,9.63 -53.89,9.65 -18.97,0.65 -35.4,-3.62 -49.41,-12.73 -14.06,-9.04 -21.84,-24 -23.56,-44.88l-73.19 1.27zm-125.97 128.73l73.57 -9.02 -44.32 -361.07 -73.59 9.04 44.34 361.05zm-349.65 91.33l66.8 -17.89 -67.13 -250.5 0.9 -0.25 205.95 213.3 71.03 -19.02 -94.15 -351.38 -66.32 17.77 65.54 244.57 -0.89 0.24 -200.54 -208.4 -75.35 20.2 94.16 351.36zm-323.48 179.69l60.5 -33.53 -125.73 -226.82 0.82 -0.46 251.41 157.16 64.34 -35.65 -176.36 -318.16 -60.05 33.29 122.75 221.44 -0.81 0.45 -244.99 -153.7 -68.22 37.84 176.34 318.14zm-257.84 215.01l204.87 -171.91 -41.3 -49.23 -149.64 125.55 -60.52 -72.1 131.87 -110.65 -40.98 -48.85 -131.86 110.65 -49.71 -59.25 143.55 -120.46 -41.31 -49.22 -198.8 166.81 233.83 278.66zm-145.18 184.25l46.65 -57.61 -232.75 -188.49 67.04 -82.77 -49.95 -40.46 -180.24 222.6 49.93 40.44 66.56 -82.2 232.76 188.49z"/>
            <path class="fil3" d="M2157.31 4368.64c-5.52,59.29 5.37,107.15 32.6,143.39 27.34,36.69 61.92,57.57 103.79,62.93 21.38,2.22 42.02,0.63 61.88,-4.75 20.06,-4.93 40.3,-18.39 60.57,-40.16l3.27 45.99 48.81 4.27 17.1 -195.42 -148.56 -13 -5.34 61.09 83.78 7.33c-9.48,29.81 -24.12,50.04 -44.02,60.75 -20.35,11.09 -42.83,14.27 -67.37,9.51 -24.39,-4.92 -44.12,-17.41 -59.23,-37.18 -15.93,-20.12 -22.16,-51.55 -18.76,-94.27 1.18,-13.45 3.24,-25.62 6.41,-36.44 2.9,-11 6.45,-20.51 10.45,-28.63 8.23,-16.64 17.96,-29.15 29.29,-37.56 11.49,-8.49 23.34,-14.21 35.54,-17.3 12.02,-1.91 23.08,-2.47 33.07,-1.6 13.11,1.14 24.6,4.35 34.39,9.53 9.3,4.96 16.91,10.89 22.74,17.82 11.99,14.93 17.97,27.83 17.97,38.57l73.5 6.44c0.41,-30.7 -10.41,-59.07 -32.44,-84.96 -22.53,-25.86 -54.92,-41.89 -97.12,-48.21 -64.49,-7 -112.65,6.39 -144.48,40.19 -32.49,33.72 -51.83,77.58 -57.84,131.67zm-262.35 -95.72l26.78 -93.39 89.27 25.59c9.32,2.67 16.89,6.25 22.66,10.63 5.37,3.9 9.25,8.69 11.74,14.41 3.66,10.8 3.82,21.89 0.53,33.32 -3.66,14.05 -10.21,24.62 -19.69,31.65 -9.85,7.44 -24.51,8.41 -43.81,2.88l-87.48 -25.09zm-125.38 175.6l69.33 19.88 39.14 -136.55 75.65 21.7c12.64,3.62 22.3,7.62 28.88,11.88 6.34,4.2 10.47,9.05 12.39,14.61 3.1,10.63 2.3,23.21 -2.51,37.54 -3.77,14.35 -7.65,29.4 -11.5,45.31 -1.4,7.32 -2.57,14.78 -3.5,22.59 -1.06,7.41 -1.61,14.81 -1.53,22.2l78.39 22.49 2.73 -9.5c-6.52,-4.24 -9.16,-11.21 -8.16,-20.84 0.39,-9.63 2.24,-20.69 5.48,-33.18 2.33,-6.01 4.2,-11.26 5.44,-15.63 1.44,-4.95 2.85,-9.9 4.25,-14.75 2.51,-8.76 4.57,-17.21 6.33,-25.47 0.81,-4.08 1.28,-8.16 1.4,-12.25 0,-3.94 -0.41,-7.75 -1.04,-11.33 -1.79,-15.8 -11.1,-29.52 -27.95,-41.19 19.31,-1.84 35.95,-9.09 49.77,-21.8 13.25,-12.26 22.73,-28.14 28.33,-47.68 6.82,-24.97 4.64,-49.55 -6.53,-73.9 -10.86,-24.89 -34.88,-42.99 -71.99,-54.33l-172.53 -49.47 -100.27 349.67zm-335.61 -165.45l238.3 121.43 29.17 -57.27 -174.05 -88.67 42.74 -83.87 153.38 78.15 28.93 -56.81 -153.37 -78.15 35.12 -68.92 166.98 85.08 29.18 -57.26 -231.24 -117.83 -165.14 324.12zm-225.19 -245.08l61.46 -75.9 73.61 59.6c9.39,7.19 16.52,16.85 21.27,28.94 2.32,6.13 2.83,12.61 1.57,19.52 -1.81,6.77 -5.98,13.94 -12.61,21.59 -12.28,13.16 -24.44,19.6 -36.58,19.32 -12.67,-0.29 -24.62,-4.97 -35.77,-13.99l-72.95 -59.08zm149.94 -185.17l66.33 53.72c8.72,7.06 15.32,13.51 19.9,19.26 4.11,5.92 6.39,11.26 6.98,16.17 0.43,9.92 -3.13,19.29 -10.77,28.18 -16.2,19.99 -36.92,20.14 -62.39,0.39l-69.68 -56.42 49.63 -61.3zm-120.94 288.75c62.7,51.63 118.73,52.52 168.38,2.75 12.44,-12.82 20.99,-28.9 25.63,-48.15 4.17,-19.1 0.88,-38.36 -9.9,-57.74 16.85,4.54 32.54,3.24 47.26,-3.94 14.66,-7.23 26.75,-17.62 36.05,-31.25 14.77,-20.27 20.8,-42.31 18.12,-66.08 -3.35,-23.87 -18.35,-46.87 -45.08,-68.95l-135.03 -109.34 -228.92 282.69 123.49 100.01zm-361.21 -348.39l163.56 188.16 49.97 -43.43 -114.93 -132.21 224.57 -195.21 -48.65 -55.96 -274.52 238.65zm-37.92 -405.74c20.21,-10.2 38.66,-16.38 55.27,-18.46 16.37,-2.36 30.54,-1.77 42.56,1.53 12.5,3.59 23.25,8.87 31.98,15.92 8.29,7.09 14.5,14.8 18.59,23.24 11.31,20.27 15.96,38.62 13.92,55.17 -2.42,16.39 -8.26,30.87 -17.74,43.46 -9.45,12.65 -20.07,23.27 -31.83,31.91 -11.94,8.36 -22.23,14.98 -30.93,20.01 -10.87,6.27 -22.91,11.76 -36.16,16.48 -13.65,4 -27.78,6.02 -42.34,5.76 -14.37,0.11 -27.95,-3.36 -40.57,-10.38 -12.96,-7.11 -24.11,-18.31 -33.25,-33.48 -16.88,-33.11 -16.66,-62.76 0.63,-88.8 16.92,-26.03 40.26,-46.82 69.87,-62.36zm-60.49 -48.93c-40.77,26.19 -68.18,60.02 -82.06,101.44 -14.58,41.72 -8.92,85.59 16.88,131.65 56.76,94.43 139.8,111.73 249.12,51.94 60.01,-35.72 94.71,-75.82 104.02,-120.26 9.75,-44.17 3.04,-84.82 -20.04,-121.75 -33.13,-53.51 -73.03,-82.11 -119.53,-85.93 -46.88,-4.09 -96.28,10.2 -148.39,42.91zm-231.37 -145.5l25.35 69.68 281.44 -102.44 36.43 100.11 60.4 -22 -97.98 -269.13 -60.38 21.97 36.18 99.38 -281.44 102.43zm0.13 -476.05c-21.1,4.66 -38.54,12.18 -52.28,22.58 -13.9,10.07 -24.55,22.56 -31.77,37.45 -14.25,30.36 -17.37,68.07 -9.41,113.17 1.14,6.49 4.15,16.75 8.93,30.79 4.9,13.71 12.63,27.84 23.06,42.36 10.47,14.68 24.71,26.06 42.94,34.23 17.55,7.77 39.42,9.32 65.58,4.7 30.65,-5.4 51.55,-17.48 62.62,-36.32 10.9,-19.81 16.99,-48.45 18.24,-86.01 2.36,-30.83 4.47,-60.65 6.33,-89.41 1.93,-11.39 5.93,-19.82 11.83,-25.15 5.87,-5.55 12.51,-8.79 19.86,-9.82 8.26,-0.78 15.33,0.46 21.19,3.54 5.67,2.68 10.49,6.63 14.39,11.76 4.15,5.53 7.61,11.59 10.51,18.29 2.62,7.06 4.45,14.1 5.68,21.09 4.27,18.42 3.89,35.63 -1.1,51.57 -5.17,15.29 -18.16,26.16 -38.89,32.47l12.65 71.75c12.58,-2.55 25.13,-7.07 37.68,-13.65 12.51,-6.74 23.63,-16.5 33.4,-29.18 9.78,-12.01 16.73,-27.46 20.83,-46.5 4.18,-19.07 3.92,-41.89 -0.81,-68.64 -16.48,-84.27 -60.29,-121.5 -131.37,-111.71 -35.95,5.99 -59.55,21.72 -70.81,47.17 -5.86,12.5 -9.93,26.25 -12.38,41.07 -2.47,15.07 -4.04,31.03 -4.6,47.64 0.08,12.24 -0.46,24.15 -1.75,35.78 -0.48,9.93 -0.93,18.99 -1.44,27.32 -0.89,8.54 -2.49,16.01 -4.86,22.44 -1.85,6.48 -5.05,11.76 -9.57,15.73 -4.8,3.84 -11.37,6.36 -19.73,7.5 -18.1,1.83 -31.37,-4.49 -39.77,-19.11 -8.84,-14.62 -14.79,-31.9 -17.95,-51.73 -3.62,-18.63 -1.98,-35.55 4.83,-50.78 6.72,-15.32 20.29,-25.33 40.66,-30.3l-12.72 -72.09z"/>
            <path class="fil3" d="M4444.55 2844.07l104.18 10.96 10.74 -102.26 -104.18 -10.95 -10.74 102.25zm34.12 280.76l17.96 -67.04 -92.15 -60.84 -228.25 -148.92 -19.75 73.74 14.65 9.16 232.06 136.3 -0.23 0.9 -17.53 0.28 -268.55 1.12 -20.33 75.86 109.73 -6.04 272.39 -14.52zm-100.86 252.04l30.16 -67.72 -67.26 -29.95 -30.17 67.72 67.27 29.95zm-178.44 316.41l141.74 -226.81 -54.51 -34.05 -103.51 165.65 -79.82 -49.87 91.21 -145.98 -54.08 -33.8 -91.21 145.99 -65.59 -40.99 99.32 -158.92 -54.51 -34.07 -137.52 220.09 308.48 192.76zm-225.29 271.59l-40.85 -46.98 -118.02 102.59c-1.75,-6.52 -2.29,-14.09 -1.75,-22.72 0.93,-8.18 2.63,-17.04 5.21,-26.42 4.79,-19.04 10.16,-39.58 16.03,-61.77 6.01,-22 7.94,-44.46 5.95,-67.33 -1.98,-22.07 -11.53,-42.84 -28.77,-62.15 -26.94,-28.54 -54.91,-42.34 -83.97,-41.56 -29.68,0.68 -57.87,13.1 -84.56,37.18 -29.33,27.19 -43.01,55.95 -41.05,86.1 2,30.33 14.67,58.77 38.16,85.29l52.2 -45.38c-2.13,-2.94 -5.52,-7.37 -10.25,-13.33 -4.17,-5.31 -7.85,-11.73 -11.1,-19.19 -3.28,-7.76 -4,-16.29 -2.21,-25.55 1.91,-8.59 7.95,-17.32 18.15,-26.18 8.09,-7.02 15.56,-11.4 22.62,-13.19 7.57,-1.55 14.5,-1.31 20.77,0.61 6.36,1.3 11.94,3.61 16.84,6.93 4.59,3.72 8.17,7.2 11,10.45 14.08,16.6 20.1,35.6 18.14,56.87 -2.3,21.66 -7.13,48.9 -14.52,81.79 -6.25,24.54 -8.57,50.04 -6.88,76.27 2.01,26.87 14.93,54.98 38.71,84.27l180.15 -156.6zm-502.04 247.78c15.9,25.39 37.58,43.04 64.92,52.96 27.42,10.5 59.79,4.95 97.17,-16.71 35.62,-24.43 55.43,-51.92 59.19,-82.55 3.62,-30.22 -2.09,-56.78 -17.09,-79.63 -10.66,-17.01 -23.67,-30.11 -39.04,-39.48 -7.93,-4.33 -16.49,-7.09 -25.76,-8.17 -9.13,-0.85 -18.74,0.44 -29.03,3.71 -0.15,-0.21 -0.33,-0.48 -0.52,-0.76 5.08,-9.22 8.35,-19.77 9.65,-31.55 1.34,-11.88 -0.62,-24.29 -6.05,-37.31 -13.04,-27.02 -33.15,-44.79 -60.27,-53.46 -27.13,-8.55 -58.31,-1.86 -93.67,19.95 -33.96,23.71 -51.51,50.31 -52.58,79.82 -1.32,29.39 6.47,55.87 23.48,79.28l54.89 -37.01c-11.98,-17.15 -16.63,-32.22 -14.11,-45.22 2.74,-12.53 9.88,-22.74 21.63,-30.67 0.29,-0.18 0.56,-0.38 0.85,-0.56 11.45,-7.75 23.28,-10.12 35.41,-7.21 12.07,3.56 22.69,13.28 31.88,29.16 12.47,26.49 -0.12,50.35 -37.86,71.63l28.67 42.51c1.13,-0.76 2.52,-1.71 4.27,-2.88 42.7,-29.62 74.19,-27.55 94.45,6.09 8.19,14.4 10.68,27.89 7.69,40.5 -2.51,13.17 -9.4,23.63 -20.87,31.36 -10.61,7.95 -22.86,11.04 -36.95,9.34 -6.98,-1.17 -14.2,-4.34 -21.65,-9.19 -7.25,-4.87 -14.63,-12.2 -22.13,-22.1l-56.57 38.15zm-244.57 -98.02c15.83,-7.77 30.42,-8.61 43.8,-2.47 13.04,7.04 23.25,18.09 30.56,33.21 18.91,37.33 12.94,64.87 -17.83,82.49 -17.37,8.46 -32.26,8.24 -44.81,-0.71 -5.84,-4.34 -11.43,-9.74 -16.72,-16.11 -5.12,-6.36 -9.48,-13.53 -13.16,-21.41 -6.7,-14.38 -9.1,-28.33 -7.2,-41.98 2.12,-13.45 10.49,-24.42 25.36,-33.02zm-7.64 244.86c13.17,22.8 32.4,37.94 57.9,45.3 25.36,7.89 52.53,5.3 81.41,-7.81 22.91,-12.17 39.22,-27.04 48.98,-44.62 9.57,-17.21 14.66,-35.86 15.1,-56.06 0.37,-20.76 -2.39,-41.62 -8.11,-62.68 -6.53,-20.77 -14.35,-40.96 -23.47,-60.51 -5.73,-11.48 -10.98,-22.34 -15.8,-32.66 -49.54,-85.5 -108.07,-111.25 -175.53,-77.28 -65.67,35.56 -82.7,89.27 -51.08,161.26 17.55,36.02 40.3,58.08 68.41,66.28 27.54,8.75 53.53,7.24 78.01,-4.55 12.04,-5.9 22.41,-13.41 31.1,-22.3 8.58,-8.76 13.86,-19.96 15.78,-33.61l1.27 0.53c14.45,31.58 19.95,56.95 16.6,75.91 -3.31,19.23 -11.55,31.9 -24.54,37.97 -21.62,11.09 -39.38,6.35 -53.34,-14.39l-62.69 29.22zm-174.17 142.79l66.49 -19.06 -99.08 -345.54 -54.08 15.51c3.78,19.61 -0.01,36.67 -11.49,51.11 -11.59,15.25 -32.86,27.06 -63.86,35.25l13.7 47.75 80.1 -22.97 68.22 237.95z"/>
            <path class="fil1" d="M3663.02 2591.14c0,16.37 0,32.27 0,47.89 0.77,35.89 13.62,62.35 38.66,79.5 24.65,17.04 52.93,25.59 85.02,25.59 38.84,0.39 70.45,-10.84 94.74,-33.69 24.45,-22.95 35.02,-62.74 31.88,-119.39 -0.77,-14.86 -3.43,-28.18 -8.09,-39.89 -5.23,-11.52 -11.71,-21.52 -19.42,-29.82 -16.19,-16.75 -34.46,-30.65 -54.84,-41.59 -20.19,-11.52 -37.23,-22.75 -51.31,-33.7 -14.76,-11.15 -22,-24.94 -21.62,-41.32 1.15,-7.04 2.75,-12.95 4.86,-17.53 2,-4.66 4.47,-7.89 7.33,-9.8 2.86,-2.18 6,-3.71 9.43,-4.47 3.24,-0.38 6.37,-0.57 9.42,-0.57 11.71,0 20.75,4.57 27.04,13.7 6.29,9.53 8.95,25.43 7.81,47.99l89.39 0c0,-2.67 0,-5.71 0,-9.23 -0.77,-46.08 -13.41,-79.6 -38.09,-100.35 -24.65,-20.28 -54.16,-30.09 -88.53,-29.31 -72.92,1.79 -112.52,38.82 -118.82,110.8 0,2.97 -0.37,6.58 -1.05,10.67 1.43,33.32 9.92,59.59 25.33,79.01 7.71,9.81 16.47,18.76 26.17,26.75 9.15,7.73 18.58,14.96 28.1,21.81 9.9,6.19 19.7,12.09 29.41,17.9 9.52,5.62 18,11.43 25.33,17.61 15.52,11.53 23.42,26.19 23.79,44.09 -0.75,30.56 -13.13,44.93 -37.12,43.32 -9.81,-0.39 -17.99,-4.01 -24.65,-10.95 -7.24,-5.92 -10.86,-16.38 -10.86,-31.23l0 -33.79 -89.31 0zm-285.61 0c0,16.37 0,32.27 0,47.89 0.76,35.89 13.61,62.35 38.66,79.5 24.66,17.04 52.93,25.59 85.01,25.59 38.85,0.39 70.46,-10.84 94.74,-33.69 24.45,-22.95 35.03,-62.74 31.89,-119.39 -0.77,-14.86 -3.43,-28.18 -8.09,-39.89 -5.24,-11.52 -11.72,-21.52 -19.43,-29.82 -16.18,-16.75 -34.47,-30.65 -54.83,-41.59 -20.19,-11.52 -37.23,-22.75 -51.33,-33.7 -14.76,-11.15 -21.99,-24.94 -21.59,-41.32 1.14,-7.04 2.75,-12.95 4.83,-17.53 2,-4.66 4.49,-7.89 7.34,-9.8 2.86,-2.18 6.01,-3.71 9.42,-4.47 3.25,-0.38 6.38,-0.57 9.43,-0.57 11.7,0 20.76,4.57 27.05,13.7 6.27,9.53 8.93,25.43 7.81,47.99l89.39 0c0,-2.67 0,-5.71 0,-9.23 -0.77,-46.08 -13.43,-79.6 -38.09,-100.35 -24.65,-20.28 -54.16,-30.09 -88.54,-29.31 -72.93,1.79 -112.53,38.82 -118.81,110.8 0,2.97 -0.39,6.58 -1.06,10.67 1.43,33.32 9.91,59.59 25.34,79.01 7.7,9.81 16.47,18.76 26.17,26.75 9.15,7.73 18.58,14.96 28.1,21.81 9.9,6.19 19.71,12.09 29.4,17.9 9.53,5.62 18,11.43 25.33,17.61 15.51,11.53 23.42,26.19 23.8,44.09 -0.76,30.56 -13.13,44.93 -37.13,43.32 -9.8,-0.39 -18,-4.01 -24.66,-10.95 -7.24,-5.92 -10.85,-16.38 -10.85,-31.23l0 -33.79 -89.3 0zm-138.91 142.71l98.16 0 0 -429.58 -98.16 0 0 429.58zm-289.51 0l233.35 0 0 -85.4 -132.92 0 0 -93.69 121.87 0 0 -85.39 -121.87 0 0 -79.7 125.11 0 0 -85.4 -225.54 0 0 429.58zm-393.3 0l108.07 0 32.65 -301.14 1.14 0 29.71 301.14 109.67 0 69.11 -428.44 -91.87 0 -31.6 300 -1.06 1.05 -36.45 -301.05 -93.97 0 -40.55 300 -1.05 1.05 -28.66 -301.05 -94.25 0 69.11 428.44zm-240.67 -135l137.19 0 0 -85.88 -137.19 0 0 85.88zm-320.75 -293.44l0 314.57c1.81,85.77 48.46,127.09 139.76,124.14 83.88,-1.51 126.53,-43.61 127.95,-126.33l0 -312.38 -98.16 0 0 323.41c-0.37,11.92 -2.75,21.05 -7.23,27.34 -5.03,7.32 -13.52,10.95 -25.33,10.95 -23.14,-0.39 -35.22,-11.52 -36.56,-33.51l0 -328.19 -100.43 0zm-213.83 270.58l27.51 -192.31 28.28 192.31 -55.79 0zm-121.2 157.86l98.53 0 11.53 -82.56 76.92 0 12.66 82.56 98.26 0 -89.59 -428.44 -117.68 0 -90.63 428.44zm-236.78 0l217.17 0 0 -85.4 -119 0 0 -344.18 -98.17 0 0 429.58zm-216.21 -351.21c10.58,0 20.1,0.18 28.56,0.57 8.48,0.66 15.61,2.18 21.52,4.47 12.58,4.29 18.66,16.27 18.28,36.08 0.38,19.04 -3.62,32.18 -12.09,39.41 -8.86,7.71 -27.61,11.33 -56.27,10.95l0 -91.48zm0 168.51c27.71,-0.39 47.22,2.56 58.74,8.94 11.63,7.62 17.05,22.38 16.09,44.18 0,8.37 -0.37,16 -1.14,22.85 -1.23,6.94 -4.09,12.85 -8.84,17.89 -8.77,9.92 -30.39,13.91 -64.85,12.01l0 -105.87zm-100.44 182.7l141.77 0c88.35,-0.77 131.95,-42.38 130.81,-125.02 0.38,-27.13 -3.06,-47.6 -10.09,-61.3 -7.35,-13.99 -22.19,-27.23 -44.67,-39.89 6.49,-4.09 12.68,-8.67 18.38,-13.71 5.81,-4.96 10.85,-11.14 15.34,-18.37 4.65,-7.25 8.47,-16.19 11.41,-26.77 2.68,-10.27 3.91,-22.94 3.91,-38.26 -1.8,-39.24 -15.32,-66.84 -40.46,-82.84 -24.75,-15.22 -54.84,-22.65 -90.45,-22.28l-135.95 0 0 428.44z"/>
  </g>
 </g>
</svg>
